<?xml version="1.0" encoding="UTF-8"?>
<!DOCTYPE svg PUBLIC "-//W3C//DTD SVG 1.1//EN" "http://www.w3.org/Graphics/SVG/1.1/DTD/svg11.dtd">
<svg xmlns="http://www.w3.org/2000/svg" version="1.1" width="1024px" height="1024px" style="shape-rendering:geometricPrecision; text-rendering:geometricPrecision; image-rendering:optimizeQuality; fill-rule:evenodd; clip-rule:evenodd" xmlns:xlink="http://www.w3.org/1999/xlink">
<g><path style="opacity:1" fill="#151a1c" d="M -0.5,-0.5 C 340.833,-0.5 682.167,-0.5 1023.5,-0.5C 1023.5,340.833 1023.5,682.167 1023.5,1023.5C 682.167,1023.5 340.833,1023.5 -0.5,1023.5C -0.5,682.167 -0.5,340.833 -0.5,-0.5 Z"/></g>
<g><path style="opacity:1" fill="#f8f7f4" d="M 798.5,639.5 C 607.667,640.5 416.667,640.833 225.5,640.5C 320.317,477.532 415.651,314.866 511.5,152.5C 604.164,310.015 696.664,467.681 789,625.5C 791.942,630.406 795.109,635.072 798.5,639.5 Z"/></g>
<g><path style="opacity:1" fill="#171b1e" d="M 500.5,370.5 C 558.314,370.327 606.147,391.993 644,435.5C 654.197,447.394 663.03,460.227 670.5,474C 647.674,514.924 614.674,544.591 571.5,563C 518.044,582.11 467.377,576.444 419.5,546C 391.936,526.878 369.603,502.878 352.5,474C 375.299,432.533 408.299,402.2 451.5,383C 467.442,376.765 483.776,372.598 500.5,370.5 Z"/></g>
<g><path style="opacity:1" fill="#f7f7f3" d="M 503.5,400.5 C 546.409,399.588 572.909,419.921 583,461.5C 586.609,500.5 570.443,527.333 534.5,542C 498.805,551.218 470.638,540.718 450,510.5C 437.009,484.634 437.343,458.967 451,433.5C 463.513,414.497 481.013,403.497 503.5,400.5 Z"/></g>
<g><path style="opacity:1" fill="#171b1d" d="M 511.5,203.5 C 546.266,261.521 580.933,319.687 615.5,378C 583.959,357.993 549.293,347.493 511.5,346.5C 473.547,346.986 439.047,357.986 408,379.5C 441.747,320.54 476.247,261.874 511.5,203.5 Z"/></g>
<g><path style="opacity:1" fill="#171b1d" d="M 507.5,426.5 C 534.573,426.739 551.073,440.072 557,466.5C 559.028,486.941 551.528,502.775 534.5,514C 509.87,524.884 489.37,519.718 473,498.5C 460.176,473.306 464.676,451.806 486.5,434C 493.171,430.168 500.171,427.668 507.5,426.5 Z"/></g>
<g><path style="opacity:1" fill="#171b1e" d="M 751.5,610.5 C 751.5,611.5 751.5,612.5 751.5,613.5C 591.5,613.667 431.5,613.5 271.5,613C 273.065,611.494 273.399,609.994 272.5,608.5C 294.838,571.314 317.005,533.981 339,496.5C 373.592,551.063 422.759,584.23 486.5,596C 558.556,602.378 618.056,578.212 665,523.5C 671.692,514.975 678.192,506.308 684.5,497.5C 707.597,534.691 729.931,572.358 751.5,610.5 Z"/></g>
<g><path style="opacity:1" fill="#040608" d="M 272.5,608.5 C 273.399,609.994 273.065,611.494 271.5,613C 431.5,613.5 591.5,613.667 751.5,613.5C 751.5,612.5 751.5,611.5 751.5,610.5C 752.479,611.765 753.479,613.099 754.5,614.5C 592.501,615.667 430.501,615.833 268.5,615C 270.058,612.948 271.392,610.781 272.5,608.5 Z"/></g>
<g><path style="opacity:1" fill="#000000" d="M 798.5,639.5 C 799.043,639.56 799.376,639.893 799.5,640.5C 608,641.833 416.667,641.833 225.5,640.5C 416.667,640.833 607.667,640.5 798.5,639.5 Z"/></g>
<g><path style="opacity:1" fill="#000000" d="M 464.5,809.5 C 446.167,809.5 427.833,809.5 409.5,809.5C 409.5,773.5 409.5,737.5 409.5,701.5C 402.167,701.5 394.833,701.5 387.5,701.5C 394.411,700.501 402.078,700.168 410.5,700.5C 410.5,736.5 410.5,772.5 410.5,808.5C 429.244,808.168 447.244,808.501 464.5,809.5 Z"/></g>
<g><path style="opacity:1" fill="#000001" d="M 263.5,702.5 C 263.5,745.167 263.5,787.833 263.5,830.5C 270.833,830.5 278.167,830.5 285.5,830.5C 285.333,816.496 285.5,802.496 286,788.5C 287.039,787.29 288.206,786.29 289.5,785.5C 289.315,787.196 288.481,788.529 287,789.5C 286.5,803.496 286.333,817.496 286.5,831.5C 278.5,831.5 270.5,831.5 262.5,831.5C 262.168,788.33 262.501,745.33 263.5,702.5 Z"/></g>
<g><path style="opacity:1" fill="#f6f6f2" d="M 528.5,699.5 C 563.427,696.037 588.261,710.037 603,741.5C 611.852,769.92 606.019,794.753 585.5,816C 562.211,834.039 536.877,837.372 509.5,826C 479.057,807.93 467.557,781.43 475,746.5C 484.017,720.642 501.85,704.975 528.5,699.5 Z"/></g>
<g><path style="opacity:1" fill="#f5f4f1" d="M 219.5,702.5 C 226.833,702.5 234.167,702.5 241.5,702.5C 241.5,709.5 241.5,716.5 241.5,723.5C 234.167,723.5 226.833,723.5 219.5,723.5C 219.5,716.5 219.5,709.5 219.5,702.5 Z"/></g>
<g><path style="opacity:1" fill="#161b1d" d="M 532.5,719.5 C 560.228,717.94 577.395,730.607 584,757.5C 586.893,781.236 577.726,798.403 556.5,809C 533.067,816.191 514.567,809.691 501,789.5C 490.093,765.822 494.259,745.322 513.5,728C 519.469,724.077 525.803,721.244 532.5,719.5 Z"/></g>
<g><path style="opacity:1" fill="#f6f5f2" d="M 263.5,702.5 C 270.833,702.5 278.167,702.5 285.5,702.5C 285.333,721.17 285.5,739.836 286,758.5C 302.464,739.701 319.297,721.201 336.5,703C 346.167,702.333 355.833,702.333 365.5,703C 348.833,721 332.167,739 315.5,757C 333.886,781.052 351.886,805.385 369.5,830C 360.167,830.667 350.833,830.667 341.5,830C 327.545,811.256 313.711,792.422 300,773.5C 295.918,777.076 292.418,781.076 289.5,785.5C 288.206,786.29 287.039,787.29 286,788.5C 285.5,802.496 285.333,816.496 285.5,830.5C 278.167,830.5 270.833,830.5 263.5,830.5C 263.5,787.833 263.5,745.167 263.5,702.5 Z"/></g>
<g><path style="opacity:1" fill="#f6f6f2" d="M 629.5,701.5 C 646.837,701.333 664.17,701.5 681.5,702C 705.797,703.966 719.131,716.966 721.5,741C 720.067,766.595 706.734,781.095 681.5,784.5C 671.5,784.5 661.5,784.5 651.5,784.5C 651.5,799.833 651.5,815.167 651.5,830.5C 644.167,830.5 636.833,830.5 629.5,830.5C 629.5,787.5 629.5,744.5 629.5,701.5 Z"/></g>
<g><path style="opacity:1" fill="#171b1d" d="M 674.5,721.5 C 695.609,723.44 702.776,734.44 696,754.5C 692.818,758.846 688.651,761.846 683.5,763.5C 673.692,763.28 663.692,763.28 653.5,763.5C 653.5,750.167 653.5,736.833 653.5,723.5C 660.913,724.128 667.913,723.461 674.5,721.5 Z"/></g>
<g><path style="opacity:1" fill="#000000" d="M 219.5,739.5 C 219.5,769.833 219.5,800.167 219.5,830.5C 226.833,830.5 234.167,830.5 241.5,830.5C 241.5,800.167 241.5,769.833 241.5,739.5C 242.499,769.426 242.833,800.093 242.5,831.5C 234.5,831.5 226.5,831.5 218.5,831.5C 218.167,800.093 218.501,769.426 219.5,739.5 Z"/></g>
<g><path style="opacity:1" fill="#f6f5f2" d="M 219.5,739.5 C 226.833,739.5 234.167,739.5 241.5,739.5C 241.5,769.833 241.5,800.167 241.5,830.5C 234.167,830.5 226.833,830.5 219.5,830.5C 219.5,800.167 219.5,769.833 219.5,739.5 Z"/></g>
<g><path style="opacity:1" fill="#f4f4f1" d="M 387.5,701.5 C 394.833,701.5 402.167,701.5 409.5,701.5C 409.5,737.5 409.5,773.5 409.5,809.5C 427.833,809.5 446.167,809.5 464.5,809.5C 464.5,816.5 464.5,823.5 464.5,830.5C 438.833,830.5 413.167,830.5 387.5,830.5C 387.5,787.5 387.5,744.5 387.5,701.5 Z"/></g>
<g><path style="opacity:1" fill="#f5f4f1" d="M 773.5,699.5 C 787.022,697.838 799.688,700.338 811.5,707C 821.19,714.879 826.19,725.045 826.5,737.5C 819.167,737.5 811.833,737.5 804.5,737.5C 804.038,727.865 799.038,722.032 789.5,720C 781.471,718.644 773.805,719.644 766.5,723C 759.989,729.251 758.823,736.418 763,744.5C 764.873,746.709 767.04,748.542 769.5,750C 781.396,753.975 793.396,757.641 805.5,761C 823.844,768.85 831.344,782.683 828,802.5C 824.797,815.373 816.964,824.207 804.5,829C 790.586,833.208 776.586,833.542 762.5,830C 744.054,823.375 734.721,810.208 734.5,790.5C 742.167,790.5 749.833,790.5 757.5,790.5C 757.694,801.523 763.027,808.69 773.5,812C 781.232,812.856 788.898,812.523 796.5,811C 805.177,806.81 808.343,799.976 806,790.5C 803.341,784.508 798.841,780.675 792.5,779C 779.517,775.922 766.851,771.922 754.5,767C 736.259,754.07 732.426,737.57 743,717.5C 750.899,707.474 761.066,701.474 773.5,699.5 Z"/></g>
<g><path style="opacity:1" fill="#020304" d="M 674.5,721.5 C 667.913,723.461 660.913,724.128 653.5,723.5C 653.5,736.833 653.5,750.167 653.5,763.5C 663.692,763.28 673.692,763.28 683.5,763.5C 672.872,764.43 662.205,764.763 651.5,764.5C 651.5,750.167 651.5,735.833 651.5,721.5C 659.167,721.5 666.833,721.5 674.5,721.5 Z"/></g>
<g><path style="opacity:1" fill="#020304" d="M 629.5,701.5 C 629.5,744.5 629.5,787.5 629.5,830.5C 636.833,830.5 644.167,830.5 651.5,830.5C 651.5,815.167 651.5,799.833 651.5,784.5C 661.5,784.5 671.5,784.5 681.5,784.5C 682.873,784.343 684.207,784.51 685.5,785C 674.867,786.195 664.2,786.695 653.5,786.5C 653.817,801.215 653.483,815.882 652.5,830.5C 644.528,831.498 636.528,831.831 628.5,831.5C 628.168,787.997 628.501,744.663 629.5,701.5 Z"/></g>
</svg>
